# xmcd
#
# Track frame offsets: 
#        150
#        19944
#        40210
#        56452
#        73855
#        94722
#        113635
#        132897
#        150445
#        170022
#        188607
#        206220
#        227417
#        245227
#
# Disc length: 3571 seconds
#
# Revision: 1
# Processed by: cddbd v1.5.1PL0 Copyright (c) Steve Scherf et al.
# Submitted via: ExactAudioCopy v0.95a5
#
DISCID=bc0df10e
DTITLE=Kim Min Jong - You're my life
DYEAR=2001
DGENRE=
TTITLE0=You're my life
TTITLE1=나는 나는...
TTITLE2=난 다를거야
TTITLE3=하얀 그리움
TTITLE4=슬픔보다는...
TTITLE5=그 때마다
TTITLE6=바램
TTITLE7=그 해 겨울
TTITLE8=나무
TTITLE9=행복한 여행
TTITLE10=그런 때가 있다면
TTITLE11=아닐텐데
TTITLE12=난 다를거야 (Dance Version)
TTITLE13=언제나 그대 내 곁에
EXTD=
EXTT0=
EXTT1=
EXTT2=
EXTT3=
EXTT4=
EXTT5=
EXTT6=
EXTT7=
EXTT8=
EXTT9=
EXTT10=
EXTT11=
EXTT12=
EXTT13=
PLAYORDER=
